<?xml version="1.0" encoding="UTF-8"?>
<!DOCTYPE svg PUBLIC "-//W3C//DTD SVG 1.1//EN" "http://www.w3.org/Graphics/SVG/1.1/DTD/svg11.dtd">
<!-- Creator: CorelDRAW 2019 (64-Bit) -->
<svg xmlns="http://www.w3.org/2000/svg" xml:space="preserve" width="2480px" height="3508px" version="1.1" style="shape-rendering:geometricPrecision; text-rendering:geometricPrecision; image-rendering:optimizeQuality; fill-rule:evenodd; clip-rule:evenodd"
viewBox="0 0 2480 3507.43"
 xmlns:xlink="http://www.w3.org/1999/xlink">
 <defs>
  <style type="text/css">
   <![CDATA[
    .fil0 {fill:#FEFEFE}
   ]]>
  </style>
 </defs>
 <g id="Слой_x0020_1">
  <metadata id="CorelCorpID_0Corel-Layer"/>
  <g id="_2414690351088">
   <g>
    <path class="fil0" d="M2409.5 1641.84l-218.78 218.78 -354.89 -354.9 218.78 -218.77 -58.45 -58.45 -248 248 -194.56 194.56 -627.11 0 -194.56 -194.56 -248.01 -248 -58.44 58.45 218.78 218.77 -354.89 354.9 -218.78 -218.78 -58.45 58.44 248 248 206.67 206.67 219.07 217.92 -33.06 33.06c-50.16,49.6 -50.6,130.47 -1,180.62 0.33,0.34 0.66,0.67 1,1 23.02,22.82 53.82,36.1 86.22,37.2 1.19,32.34 14.71,62.99 37.78,85.69 23.03,22.8 53.82,36.08 86.22,37.2 1.26,32.39 14.88,63.07 38.07,85.72 23.03,22.8 53.82,36.09 86.22,37.2 1.19,32.34 14.71,63 37.78,85.69 50.49,49.88 131.71,49.88 182.2,0l32.73 -32.78 32.74 32.53c50.44,50.35 132.14,50.28 182.49,-0.16 22.87,-22.91 36.29,-53.56 37.61,-85.9 32.45,-1.17 63.25,-14.54 86.27,-37.44 23.06,-22.84 36.55,-53.59 37.73,-86.02 32.46,-1.19 63.26,-14.58 86.27,-37.49 23.06,-22.83 36.55,-53.59 37.73,-86.02 70.96,-2.44 126.49,-61.95 124.04,-132.9 -1.13,-32.64 -14.64,-63.62 -37.77,-86.66l-31.33 -31.21 217.37 -217.37 206.67 -206.67 248 -248 -58.36 -58.32zm-2061.69 277.22l354.89 -354.89 148.23 148.22 -354.89 354.9 -148.23 -148.23zm429.3 609.72c-18.27,18.25 -47.87,18.25 -66.14,0 -17.74,-17.49 -17.94,-46.04 -0.46,-63.78 0.15,-0.15 0.31,-0.31 0.46,-0.46l33.61 -33.31 65.59 64.81 -33.06 32.74zm123.46 123.05c-18.24,17.82 -47.39,17.79 -65.6,-0.09 -17.75,-17.53 -17.92,-46.13 -0.38,-63.89 0.13,-0.13 0.25,-0.26 0.38,-0.38l33.44 -33.07 65.23 64.82 -33.07 32.61zm124.54 122.84c-18.29,18.2 -47.85,18.2 -66.14,0 -17.73,-17.48 -17.94,-46.03 -0.46,-63.77 0.15,-0.16 0.31,-0.31 0.46,-0.46l33.32 -33.07 65.18 64.81 -32.36 32.49zm124 122.93c-18.25,17.98 -47.56,17.98 -65.8,0 -17.74,-17.49 -17.95,-46.04 -0.46,-63.77 0.15,-0.16 0.3,-0.32 0.46,-0.46l33.06 -32.86 65.19 64.81 -32.45 32.28zm620.07 -370.79c-0.08,0.08 -0.15,0.15 -0.23,0.23l0.17 0c-18.17,18.03 -47.48,18.03 -65.64,0l-62 -61.75c-16.18,-16.12 -42.36,-16.07 -58.47,0.1 -16.12,16.17 -16.07,42.35 0.1,58.47l62 61.75c17.94,17.81 18.04,46.78 0.23,64.71 -0.08,0.08 -0.15,0.15 -0.23,0.23 -18.16,18.03 -47.47,18.03 -65.63,0l-62.01 -61.76c-16.17,-16.11 -42.35,-16.06 -58.46,0.11 -16.12,16.17 -16.07,42.35 0.1,58.46l62 61.76c17.94,17.8 18.03,46.78 0.23,64.71 -0.08,0.07 -0.15,0.15 -0.23,0.22 -18.16,18.04 -47.47,18.04 -65.64,0l-62 -61.75c-16.17,-16.11 -42.35,-16.07 -58.46,0.1 -16.12,16.18 -16.07,42.36 0.1,58.47l62 61.75c17.94,17.81 18.03,46.78 0.23,64.71 -0.08,0.08 -0.15,0.15 -0.23,0.23 -18.19,18.02 -47.49,18.02 -65.68,0l-776.87 -771.83 372.01 -372 132.72 0 -303.39 310.5c-15.82,16.19 -15.67,42.1 0.33,58.11 51.23,51.74 120.02,82.37 192.74,85.81 73.18,3.88 144.57,-23.52 196.38,-75.35 1.83,-1.81 3.47,-3.79 4.92,-5.91l14.96 -21.95c89.26,70.37 205.61,96.47 316.37,70.97l287.35 286.2c17.93,17.8 18.03,46.77 0.23,64.7zm-31.6 -212.8l-173.4 -172.7 31.33 -23.85c1.48,-1.14 2.86,-2.4 4.14,-3.76l41.33 -41.33 -58.45 -58.45 -39.3 39.31 -35.76 26.95c-110.36,47.21 -238.43,20.83 -321.16,-66.13 -16.14,-16.15 -42.31,-16.15 -58.46,-0.01 -1.82,1.81 -3.46,3.79 -4.9,5.92l-39.06 57.16c-35.33,33.44 -82.78,51 -131.36,48.61 -38,-1.96 -74.74,-14.28 -106.23,-35.63l328.48 -336.37 378.82 0 372.01 372 -188.03 188.28zm246.47 -246.72l-354.89 -354.9 148.22 -148.22 354.89 354.89 -148.22 148.23z"/>
   </g>
  </g>
  <g id="_2414690351376">
   <g>
    <rect class="fil0" x="454.7" y="1877.73" width="82.67" height="82.67"/>
   </g>
  </g>
  <g id="_2414690351312">
   <g>
    <rect class="fil0" x="1942.72" y="1877.73" width="82.67" height="82.67"/>
   </g>
  </g>
  <g id="_2414690349520">
   <g>
    <path class="fil0" d="M1322.71 1257.72c182.54,-0.2 330.47,-148.13 330.67,-330.67 0,-22.82 -18.5,-41.33 -41.33,-41.33l-82.67 0c-95.05,0.05 -185.44,41.12 -248,112.67l0 -154.01 41.33 0c159.72,-0.18 289.16,-129.61 289.34,-289.33 0,-22.83 -18.51,-41.34 -41.33,-41.34l-82.67 0c-101.72,0.16 -195.88,53.73 -248.01,141.08 -52.12,-87.35 -146.28,-140.92 -248,-141.08l-82.67 0c-22.82,0 -41.33,18.51 -41.33,41.34 0.18,159.72 129.62,289.15 289.34,289.33l41.33 0 0 154.01c-62.56,-71.55 -152.96,-112.62 -248,-112.67l-82.67 0c-22.83,0 -41.33,18.5 -41.33,41.33 0.2,182.54 148.13,330.46 330.67,330.67l41.33 0 0 65.56 -265.12 265.11 116.9 0 189.55 -189.56 189.56 189.56 116.89 0 -265.11 -265.11 0 -65.56 41.33 0zm206.67 -289.33l37.9 0c-20.33,119.24 -123.6,206.51 -244.57,206.66l-37.9 0c20.32,-119.24 123.6,-206.51 244.57,-206.66zm-41.33 -372.01l37.2 0c-19.77,96.17 -104.36,165.23 -202.54,165.34l-37.2 0c19.76,-96.17 104.36,-165.23 202.54,-165.34zm-330.67 165.34c-98.18,-0.11 -182.78,-69.17 -202.54,-165.34l37.2 0c98.18,0.11 182.77,69.17 202.54,165.34l-37.2 0zm0 413.33c-120.97,-0.15 -224.24,-87.42 -244.58,-206.66l37.91 0c120.97,0.15 224.24,87.42 244.57,206.66l-37.9 0z"/>
   </g>
  </g>
  <g id="_2414690349008">
  </g>
  <g id="_2414690348400">
  </g>
  <g id="_2414690347312">
  </g>
  <g id="_2414690346736">
  </g>
  <g id="_2414690347440">
  </g>
  <g id="_2414690346864">
  </g>
  <g id="_2414690344208">
  </g>
  <g id="_2414690344016">
  </g>
  <g id="_2414690344784">
  </g>
  <g id="_2414690342608">
  </g>
  <g id="_2414690342224">
  </g>
  <g id="_2414690343376">
  </g>
  <g id="_2414690340624">
  </g>
  <g id="_2414690340560">
  </g>
  <g id="_2414690341712">
  </g>
 </g>
</svg>
