<?xml version="1.0" encoding="UTF-8"?>
<!DOCTYPE svg PUBLIC "-//W3C//DTD SVG 1.1//EN" "http://www.w3.org/Graphics/SVG/1.1/DTD/svg11.dtd">
<!-- Creator: CorelDRAW 2019 (64-Bit) -->
<svg xmlns="http://www.w3.org/2000/svg" xml:space="preserve" width="2480px" height="2480px" version="1.1" style="shape-rendering:geometricPrecision; text-rendering:geometricPrecision; image-rendering:optimizeQuality; fill-rule:evenodd; clip-rule:evenodd"
viewBox="0 0 2480 2480"
 xmlns:xlink="http://www.w3.org/1999/xlink">
 <defs>
  <style type="text/css">
   <![CDATA[
    .fil0 {fill:#FEFEFE}
   ]]>
  </style>
 </defs>
 <g id="Слой_x0020_1">
  <metadata id="CorelCorpID_0Corel-Layer"/>
  <g id="_2276899002976">
   <path class="fil0" d="M2242.57 1332.08l-2006.82 0c-50.36,0 -91.23,-40.87 -91.23,-91.22 0,-50.35 40.87,-91.23 91.23,-91.23l2006.82 0c50.36,0 91.22,40.88 91.22,91.23 0,50.36 -40.86,91.22 -91.22,91.22l0 0zm0 0z"/>
   <path class="fil0" d="M2242.57 632.72l-2006.82 0c-50.36,0 -91.23,-40.86 -91.23,-91.22 0,-50.34 40.87,-91.22 91.23,-91.22l2006.82 0c50.36,0 91.22,40.86 91.22,91.22 0,50.35 -40.86,91.22 -91.22,91.22l0 0zm0 0z"/>
   <path class="fil0" d="M2242.57 2031.4l-2006.82 0c-50.36,0 -91.23,-40.86 -91.23,-91.21 0,-50.36 40.87,-91.22 91.23,-91.22l2006.82 0c50.36,0 91.22,40.86 91.22,91.22 0,50.35 -40.86,91.21 -91.22,91.21l0 0zm0 0z"/>
  </g>
 </g>
</svg>
