<?xml version="1.0" encoding="UTF-8"?>
<!DOCTYPE svg PUBLIC "-//W3C//DTD SVG 1.1//EN" "http://www.w3.org/Graphics/SVG/1.1/DTD/svg11.dtd">
<!-- Creator: CorelDRAW 2019 (64-Bit) -->
<svg xmlns="http://www.w3.org/2000/svg" xml:space="preserve" width="2480px" height="3508px" version="1.1" style="shape-rendering:geometricPrecision; text-rendering:geometricPrecision; image-rendering:optimizeQuality; fill-rule:evenodd; clip-rule:evenodd"
viewBox="0 0 2480 3507.43"
 xmlns:xlink="http://www.w3.org/1999/xlink"
 enable-background="new 0 0 512.001 512.001">
 <defs>
  <style type="text/css">
   <![CDATA[
    .fil0 {fill:#FEFEFE}
   ]]>
  </style>
 </defs>
 <g id="Слой_x0020_1">
  <metadata id="CorelCorpID_0Corel-Layer"/>
  <g id="_2309188841456">
   <g>
    <path class="fil0" d="M1917.28 1076.61c-78.35,-78.96 -185.07,-122.57 -300.5,-122.79 -0.3,0 -0.58,0 -0.87,0 -119.06,0 -235.01,47.67 -318.21,130.87 -147.81,147.81 -205.21,449.55 -193.89,629.4 -13.73,2.19 -26.38,8.53 -36.37,18.52l-607.91 607.9c-12.53,12.53 -19.43,29.23 -19.43,47.01 0,17.78 6.9,34.48 19.43,47.01l99.66 99.65c12.53,12.53 29.23,19.43 47.01,19.43 17.78,0 34.48,-6.9 47.01,-19.43l607.91 -607.9c10.24,-10.25 16.37,-23.05 18.51,-36.37 14.63,0.92 30.03,1.4 46.12,1.4 181.77,0 447.49,-59.51 583.28,-195.29 83.4,-83.41 131.1,-199.71 130.87,-319.08 -0.22,-115.43 -43.83,-222.15 -122.62,-300.33l0 0zm-671.72 715.73l643.44 -643.44c6.92,15.33 10.47,33.76 10.55,55.18 0.33,93.25 -64.29,218.33 -164.62,318.66 -140.42,140.43 -371.45,240.98 -489.37,269.6l0 0zm96.33 -663.46c71.56,-71.57 171.4,-112.57 274.01,-112.57l0.75 0c42.28,0.08 83.14,6.95 121.29,20.03 -62.45,10.82 -130.48,39.92 -197.37,84.58 -14.35,9.58 -18.21,28.99 -8.63,43.34 9.58,14.35 28.99,18.22 43.34,8.63 105.12,-70.19 209.44,-95.34 269.49,-68.14l-643.43 643.44c23.64,-97.76 94.22,-259.72 182.78,-384.85 9.96,-14.09 6.63,-33.59 -7.46,-43.56 -14.08,-9.97 -33.58,-6.63 -43.55,7.46 -72.67,102.68 -132.83,226.48 -168.21,326.31 2.88,-170.09 60.42,-408.1 176.98,-524.67l0.01 0zm-732.88 1361.12c-0.93,0.93 -2.04,1.12 -2.81,1.12 -0.78,0 -1.89,-0.19 -2.82,-1.12l-99.66 -99.66c-0.93,-0.93 -1.12,-2.05 -1.12,-2.82 0,-0.77 0.19,-1.89 1.12,-2.82l500.24 -500.25 105.3 105.3 -500.25 500.25zm607.91 -607.91l-63.47 63.47 -105.29 -105.3 63.46 -63.46c0.75,-0.76 1.79,-1.13 2.82,-1.13 1.04,0 2.07,0.37 2.82,1.13l99.66 99.65c1.5,1.51 1.5,4.14 0,5.64l0 0zm647.91 -230.26c-116.52,116.52 -354.37,174.06 -524.45,176.99 138.9,-49.25 323.62,-146.77 438.74,-261.89 96.08,-96.07 161.07,-210.79 178.32,-310.99 13.04,38.1 19.88,78.9 19.97,121.13 0.2,102.87 -40.84,203.02 -112.58,274.76l0 0z"/>
    <path class="fil0" d="M1448.85 1267.95c8.5,0 16.97,-3.45 23.13,-10.23l0.02 -0.02c11.6,-12.76 10.65,-32.52 -2.11,-44.12 -12.78,-11.61 -32.54,-10.67 -44.15,2.11 -11.61,12.76 -10.67,32.53 2.1,44.13 5.99,5.44 13.51,8.13 21.01,8.13z"/>
   </g>
  </g>
 </g>
</svg>
