<?xml version="1.0" encoding="UTF-8"?>
<!DOCTYPE svg PUBLIC "-//W3C//DTD SVG 1.1//EN" "http://www.w3.org/Graphics/SVG/1.1/DTD/svg11.dtd">
<!-- Creator: CorelDRAW 2019 (64-Bit) -->
<svg xmlns="http://www.w3.org/2000/svg" xml:space="preserve" width="2480px" height="3508px" version="1.1" style="shape-rendering:geometricPrecision; text-rendering:geometricPrecision; image-rendering:optimizeQuality; fill-rule:evenodd; clip-rule:evenodd"
viewBox="0 0 2480 3507.43"
 xmlns:xlink="http://www.w3.org/1999/xlink">
 <defs>
  <style type="text/css">
   <![CDATA[
    .fil0 {fill:#FEFEFE}
   ]]>
  </style>
 </defs>
 <g id="Слой_x0020_1">
  <metadata id="CorelCorpID_0Corel-Layer"/>
  <path class="fil0" d="M2182.24 807.57c-249.21,-249.5 -580.63,-386.96 -933.7,-387.1 -727.55,0 -1319.67,592.1 -1319.97,1319.84 -0.09,232.64 60.68,459.73 176.19,659.9l-187.26 683.98 699.74 -183.56c192.8,105.18 409.86,160.6 630.76,160.67l0.55 0c727.47,0 1319.65,-592.15 1319.93,-1319.93 0.15,-352.7 -137.02,-684.32 -386.24,-933.8l0 0zm-933.7 2030.81l-0.46 0c-196.85,-0.08 -389.92,-52.98 -558.38,-152.92l-40.05 -23.79 -415.23 108.93 110.83 -404.84 -26.09 -41.51c-109.83,-174.67 -167.82,-376.57 -167.72,-583.86 0.23,-604.88 492.39,-1097 1097.53,-1097 293.04,0.1 568.5,114.36 775.63,321.74 207.13,207.37 321.13,483.01 321.03,776.16 -0.26,604.93 -492.39,1097.09 -1097.09,1097.09zm601.77 -821.66c-32.97,-16.52 -195.13,-96.28 -225.37,-107.31 -30.21,-11 -52.22,-16.48 -74.18,16.52 -22,33 -85.2,107.3 -104.45,129.3 -19.24,22.01 -38.46,24.78 -71.45,8.26 -32.99,-16.5 -139.25,-51.34 -265.23,-163.7 -98.04,-87.45 -164.23,-195.46 -183.48,-228.46 -19.22,-33.04 -0.16,-49.17 14.47,-67.31 35.71,-44.34 71.46,-90.82 82.45,-112.81 11,-22.02 5.49,-41.28 -2.77,-57.79 -8.22,-16.5 -74.18,-178.84 -101.66,-244.89 -26.79,-64.29 -53.96,-55.6 -74.22,-56.61 -19.21,-0.96 -41.21,-1.16 -63.21,-1.16 -21.98,0 -57.71,8.25 -87.95,41.28 -30.23,33.02 -115.42,112.8 -115.42,275.14 0,162.34 118.18,319.16 134.67,341.18 16.48,22.01 232.57,355.14 563.4,497.98 78.69,34.01 140.11,54.29 188.03,69.49 79.01,25.1 150.89,21.56 207.73,13.07 63.37,-9.48 195.11,-79.8 222.62,-156.83 27.47,-77.04 27.47,-143.07 19.21,-156.84 -8.22,-13.75 -30.22,-21.99 -63.19,-38.51l0 0zm0 0z"/>
 </g>
</svg>
